<svg width="180" height="40" viewBox="0 0 180 40" fill="none" xmlns="http://www.w3.org/2000/svg">
<g clip-path="url(#clip0_2331_7419)">
<path d="M73.976 4.13277H76.9611C77.9686 4.13277 78.7802 4.94623 78.7802 5.95605V25.7129C78.7802 26.7228 79.5918 27.5362 80.5993 27.5362H81.0751C82.0825 27.5362 82.8941 26.7228 82.8941 25.7129V5.95605C82.8941 4.94623 83.7057 4.13277 84.7132 4.13277H87.6984C88.7059 4.13277 89.5175 3.31931 89.5175 2.30949V1.83263C89.5175 0.822812 88.7059 0.00934788 87.6984 0.00934788H73.976C72.9685 0.00934788 72.1569 0.822812 72.1569 1.83263V2.30949C72.1569 3.31931 72.9685 4.13277 73.976 4.13277Z" fill="#1C1C1F"/>
<path d="M119.164 1.83263V25.7036C119.164 26.7134 119.975 27.5269 120.983 27.5269H121.459C122.466 27.5269 123.278 26.7134 123.278 25.7036V18.5601C123.278 17.5503 124.089 16.7368 125.097 16.7368H131.356C131.841 16.7368 132.299 16.5404 132.644 16.2038L136.067 12.7723C136.412 12.4264 136.599 11.9682 136.599 11.482V5.26414C136.599 4.77793 136.403 4.31977 136.067 3.97382L132.644 0.542307C132.299 0.196351 131.841 0.00934788 131.356 0.00934788H120.983C119.975 0.00934788 119.164 0.822812 119.164 1.83263ZM131.944 11.0706L130.937 12.0804C130.591 12.4264 130.134 12.6134 129.649 12.6134H125.097C124.089 12.6134 123.278 11.7999 123.278 10.7901V5.95605C123.278 4.94623 124.089 4.13277 125.097 4.13277H129.649C130.134 4.13277 130.591 4.32912 130.937 4.66573L131.944 5.67555C132.289 6.0215 132.476 6.47966 132.476 6.96587V9.77092C132.485 10.2665 132.289 10.7246 131.944 11.0706Z" fill="#1C1C1F"/>
<path d="M62.2033 21.8607L61.1958 22.8705C60.8506 23.2165 60.3935 23.4035 59.9084 23.4035H57.1098C56.6247 23.4035 56.1676 23.2071 55.8225 22.8705L54.815 21.8607C54.4698 21.5147 54.2833 21.0566 54.2833 20.5704V1.83263C54.2833 0.822812 53.4717 0.00934788 52.4642 0.00934788H51.9884C50.9809 0.00934788 50.1693 0.822812 50.1693 1.83263V22.2721C50.1693 22.7583 50.3652 23.2165 50.7011 23.5624L54.1247 26.9939C54.4698 27.3399 54.9269 27.5269 55.412 27.5269H61.6249C62.11 27.5269 62.5671 27.3305 62.9122 26.9939L66.3358 23.5624C66.681 23.2165 66.8676 22.7583 66.8676 22.2721V1.83263C66.8676 0.822812 66.056 0.00934788 65.0485 0.00934788H64.5727C63.5652 0.00934788 62.7536 0.822812 62.7536 1.83263V20.5704C62.7443 21.0566 62.5484 21.5147 62.2033 21.8607Z" fill="#1C1C1F"/>
<path d="M4.30049 0.495556L0.625018 3.67461C0.233216 4.02057 0 4.52548 0 5.05844V10.8462C0 11.3324 0.195901 11.7906 0.531731 12.1365L3.71279 15.3249C4.05795 15.6709 4.51505 15.8579 5.00014 15.8579H10.8678C11.3529 15.8579 11.81 16.0542 12.1552 16.3908L12.9201 17.1575C13.2653 17.5035 13.4519 17.9617 13.4519 18.4479V20.6452C13.4519 21.1781 13.2187 21.683 12.8175 22.029L11.7354 22.964C11.4089 23.2539 10.9798 23.4035 10.5507 23.4035H7.3323C6.89385 23.4035 6.47406 23.2445 6.13823 22.9547L4.73894 21.7391C4.33781 21.3932 4.11392 20.8883 4.11392 20.3647C4.11392 19.3548 3.30233 18.5414 2.29484 18.5414H1.81908C0.81159 18.5414 0 19.3642 0 20.3647V22.2534C0 22.7863 0.233216 23.2819 0.625018 23.6279L4.59901 27.0781C4.92551 27.3679 5.35463 27.5269 5.79307 27.5269H12.0712C12.5097 27.5269 12.9295 27.3679 13.256 27.0874L16.9314 23.9084C17.3326 23.5624 17.5658 23.0575 17.5658 22.5245V16.7368C17.5658 16.2506 17.3699 15.7924 17.0341 15.4465L13.853 12.2581C13.5078 11.9121 13.0507 11.7251 12.5657 11.7251H6.69795C6.21286 11.7251 5.75576 11.5287 5.4106 11.1921L4.64565 10.4254C4.3005 10.0795 4.11392 9.62132 4.11392 9.13511V6.94717C4.11392 6.41421 4.34714 5.9093 4.74827 5.56335L5.83039 4.62833C6.15689 4.33847 6.58601 4.18887 7.01512 4.18887H10.2335C10.6719 4.18887 11.0917 4.34782 11.4276 4.63768L12.8269 5.8532C13.228 6.19916 13.4519 6.70407 13.4519 7.22767C13.4519 8.23749 14.2635 9.05096 15.271 9.05096H15.7467C16.7542 9.05096 17.5658 8.23749 17.5658 7.22767V5.32959C17.5658 4.79663 17.3326 4.30107 16.9408 3.95512L12.9668 0.504907C12.6403 0.215052 12.2112 0.0560987 11.7727 0.0560987H5.49456C5.05611 0.0560987 4.63632 0.215051 4.30049 0.495556Z" fill="#1C1C1F"/>
<path d="M173.634 0.00934788H167.402C166.88 0.00934788 166.385 0.233752 166.031 0.626459L162.374 4.78728C162.085 5.12389 161.917 5.54464 161.917 5.99345V25.7036C161.917 26.7134 162.728 27.5269 163.736 27.5269H164.212C165.219 27.5269 166.031 26.7134 166.031 25.7036V18.4105C166.031 17.4007 166.842 16.5872 167.85 16.5872H173.158C174.165 16.5872 174.977 17.4007 174.977 18.4105V25.7036C174.977 26.7134 175.789 27.5269 176.796 27.5269H177.272C178.279 27.5269 179.091 26.7134 179.091 25.7036V6.0028C179.091 5.56335 178.932 5.13324 178.634 4.79663L175.005 0.626459C174.66 0.233752 174.156 0.00934788 173.634 0.00934788ZM166.049 10.6405V7.55493C166.049 7.11547 166.208 6.68537 166.507 6.34876L167.906 4.74988C168.251 4.35717 168.745 4.13277 169.277 4.13277H171.787C172.309 4.13277 172.803 4.35717 173.158 4.74988L174.557 6.34876C174.846 6.68537 175.014 7.10612 175.014 7.55493V10.6498C175.014 11.6597 174.203 12.4731 173.195 12.4731H167.887C166.861 12.4638 166.049 11.6503 166.049 10.6405Z" fill="#1C1C1F"/>
<path d="M142.868 0.00934788C141.86 0.00934788 141.049 0.822812 141.049 1.83263V2.30949C141.049 3.31931 141.86 4.13277 142.868 4.13277H144.211C145.219 4.13277 146.03 4.94623 146.03 5.95605V21.5802C146.03 22.59 145.219 23.4035 144.211 23.4035H142.868C141.86 23.4035 141.049 24.2169 141.049 25.2267V25.7036C141.049 26.7134 141.86 27.5269 142.868 27.5269H153.307C154.314 27.5269 155.126 26.7134 155.126 25.7036V25.2267C155.126 24.2169 154.314 23.4035 153.307 23.4035H151.963C150.956 23.4035 150.144 22.59 150.144 21.5802V5.95605C150.144 4.94623 150.956 4.13277 151.963 4.13277H153.307C154.314 4.13277 155.126 3.31931 155.126 2.30949V1.83263C155.126 0.822812 154.314 0.00934788 153.307 0.00934788H142.868Z" fill="#1C1C1F"/>
<path d="M98.2304 0.504907L94.3217 4.17017C93.9579 4.51613 93.7433 4.99299 93.7433 5.49789V22.0383C93.7433 22.5432 93.9485 23.0295 94.3217 23.3661L98.2304 27.0313C98.5662 27.3492 99.014 27.5269 99.4711 27.5269H105.675C106.132 27.5269 106.58 27.3492 106.915 27.0313L110.824 23.3661C111.188 23.0201 111.402 22.5432 111.402 22.0383V5.49789C111.402 4.99299 111.197 4.50678 110.824 4.17017L106.915 0.504907C106.58 0.187001 106.132 0.00934788 105.675 0.00934788H99.4711C99.014 0.00934788 98.5662 0.187001 98.2304 0.504907ZM106.71 21.5802L105.292 22.9079C104.956 23.2258 104.509 23.4035 104.051 23.4035H101.094C100.637 23.4035 100.189 23.2258 99.8536 22.9079L98.4356 21.5802C98.0718 21.2342 97.8572 20.7574 97.8572 20.2525V7.29313C97.8572 6.78822 98.0625 6.30201 98.4356 5.9654L99.8536 4.63768C100.189 4.31977 100.637 4.14212 101.094 4.14212H104.051C104.509 4.14212 104.956 4.31977 105.292 4.63768L106.71 5.9654C107.074 6.31136 107.288 6.78822 107.288 7.29313V20.2525C107.288 20.7574 107.083 21.2342 106.71 21.5802Z" fill="#1C1C1F"/>
<path d="M37.697 6.61057L33.0513 11.2015C32.7061 11.5381 32.249 11.7251 31.7733 11.7251H30.8777C29.8702 11.7251 29.0587 10.9116 29.0587 9.90182V1.82328C29.0587 0.813464 28.2471 0 27.2396 0H26.7638C25.7563 0 24.9447 0.813464 24.9447 1.82328V25.7129C24.9447 26.7228 25.7563 27.5362 26.7638 27.5362H27.2396C28.2471 27.5362 29.0587 26.7228 29.0587 25.7129V17.6718C29.0587 16.662 29.8702 15.8485 30.8777 15.8485H31.764C32.2397 15.8485 32.6968 16.0355 33.042 16.3721L37.6876 20.9631C38.0328 21.309 38.2287 21.7765 38.2287 22.2627V25.7129C38.2287 26.7228 39.0403 27.5362 40.0478 27.5362H40.5235C41.531 27.5362 42.3426 26.7228 42.3426 25.7129V20.5423C42.3426 20.0561 42.1467 19.5886 41.8016 19.2426L37.6037 15.0912C36.8854 14.3806 36.8854 13.2118 37.6037 12.4918L41.8016 8.34035C42.1467 7.99439 42.3426 7.52688 42.3426 7.04067V1.82328C42.3519 0.813464 41.531 0 40.5329 0H40.0571C39.0496 0 38.238 0.813464 38.238 1.82328V5.31089C38.238 5.80645 38.0421 6.27396 37.697 6.61057Z" fill="#1C1C1F"/>
<path d="M65.0392 35.8765H1.81908C0.81159 35.8765 0 36.6899 0 37.6997V38.1766C0 39.1864 0.81159 39.9999 1.81908 39.9999H65.0392C66.0466 39.9999 66.8582 39.1864 66.8582 38.1766V37.6997C66.8582 36.6899 66.0373 35.8765 65.0392 35.8765Z" fill="#F776FB"/>
</g>
<defs>
<clipPath id="clip0_2331_7419">
<rect width="179.091" height="40" fill="white"/>
</clipPath>
</defs>
</svg>
